<mxfile host="65bd71144e">
    <diagram name="Page-1" id="aglYr929WK8xc2fbUiDA">
        <mxGraphModel dx="2943" dy="1878" grid="1" gridSize="10" guides="1" tooltips="1" connect="1" arrows="1" fold="1" page="1" pageScale="1" pageWidth="850" pageHeight="1100" math="0" shadow="0">
            <root>
                <mxCell id="0"/>
                <mxCell id="1" parent="0"/>
                <mxCell id="xco-Sbekk9N-eOxt5Vlx-237" style="edgeStyle=orthogonalEdgeStyle;rounded=0;orthogonalLoop=1;jettySize=auto;html=1;entryX=1;entryY=0.5;entryDx=0;entryDy=0;endArrow=none;startFill=0;" parent="1" source="xco-Sbekk9N-eOxt5Vlx-1" target="xco-Sbekk9N-eOxt5Vlx-236" edge="1">
                    <mxGeometry relative="1" as="geometry"/>
                </mxCell>
                <mxCell id="xco-Sbekk9N-eOxt5Vlx-1" value="Habitad" style="whiteSpace=wrap;html=1;align=center;fillColor=#d5e8d4;strokeColor=#82b366;" parent="1" vertex="1">
                    <mxGeometry x="80" y="100" width="100" height="40" as="geometry"/>
                </mxCell>
                <mxCell id="xco-Sbekk9N-eOxt5Vlx-37" style="rounded=0;orthogonalLoop=1;jettySize=auto;html=1;entryX=0;entryY=0.75;entryDx=0;entryDy=0;" parent="1" source="xco-Sbekk9N-eOxt5Vlx-3" target="xco-Sbekk9N-eOxt5Vlx-1" edge="1">
                    <mxGeometry relative="1" as="geometry"/>
                </mxCell>
                <mxCell id="xco-Sbekk9N-eOxt5Vlx-3" value="Id del habitad" style="ellipse;whiteSpace=wrap;html=1;align=center;fontStyle=4;fillColor=#e1d5e7;strokeColor=#9673a6;" parent="1" vertex="1">
                    <mxGeometry x="-100" y="170" width="100" height="40" as="geometry"/>
                </mxCell>
                <mxCell id="xco-Sbekk9N-eOxt5Vlx-4" value="Nombre de la zona" style="ellipse;whiteSpace=wrap;html=1;align=center;fillColor=#dae8fc;strokeColor=#6c8ebf;" parent="1" vertex="1">
                    <mxGeometry x="-30" y="50" width="100" height="40" as="geometry"/>
                </mxCell>
                <mxCell id="xco-Sbekk9N-eOxt5Vlx-43" style="rounded=0;orthogonalLoop=1;jettySize=auto;html=1;" parent="1" source="xco-Sbekk9N-eOxt5Vlx-5" target="xco-Sbekk9N-eOxt5Vlx-1" edge="1">
                    <mxGeometry relative="1" as="geometry"/>
                </mxCell>
                <mxCell id="xco-Sbekk9N-eOxt5Vlx-5" value="Clima" style="ellipse;whiteSpace=wrap;html=1;align=center;fillColor=#dae8fc;strokeColor=#6c8ebf;" parent="1" vertex="1">
                    <mxGeometry x="30" y="-20" width="100" height="40" as="geometry"/>
                </mxCell>
                <mxCell id="xco-Sbekk9N-eOxt5Vlx-42" style="rounded=0;orthogonalLoop=1;jettySize=auto;html=1;entryX=0.75;entryY=0;entryDx=0;entryDy=0;" parent="1" source="xco-Sbekk9N-eOxt5Vlx-6" target="xco-Sbekk9N-eOxt5Vlx-1" edge="1">
                    <mxGeometry relative="1" as="geometry"/>
                </mxCell>
                <mxCell id="xco-Sbekk9N-eOxt5Vlx-6" value="Vegatacion" style="ellipse;whiteSpace=wrap;html=1;align=center;fillColor=#dae8fc;strokeColor=#6c8ebf;" parent="1" vertex="1">
                    <mxGeometry x="190" y="50" width="100" height="40" as="geometry"/>
                </mxCell>
                <mxCell id="xco-Sbekk9N-eOxt5Vlx-41" style="rounded=0;orthogonalLoop=1;jettySize=auto;html=1;" parent="1" source="xco-Sbekk9N-eOxt5Vlx-7" target="xco-Sbekk9N-eOxt5Vlx-1" edge="1">
                    <mxGeometry relative="1" as="geometry"/>
                </mxCell>
                <mxCell id="xco-Sbekk9N-eOxt5Vlx-7" value="Estado de la habitad" style="ellipse;whiteSpace=wrap;html=1;align=center;fillColor=#dae8fc;strokeColor=#6c8ebf;" parent="1" vertex="1">
                    <mxGeometry x="230" y="120" width="100" height="40" as="geometry"/>
                </mxCell>
                <mxCell id="xco-Sbekk9N-eOxt5Vlx-40" style="rounded=0;orthogonalLoop=1;jettySize=auto;html=1;" parent="1" source="xco-Sbekk9N-eOxt5Vlx-16" target="xco-Sbekk9N-eOxt5Vlx-1" edge="1">
                    <mxGeometry relative="1" as="geometry"/>
                </mxCell>
                <mxCell id="xco-Sbekk9N-eOxt5Vlx-16" value="DataCreate" style="ellipse;whiteSpace=wrap;html=1;align=center;fillColor=#dae8fc;strokeColor=#6c8ebf;" parent="1" vertex="1">
                    <mxGeometry x="150" y="160" width="100" height="40" as="geometry"/>
                </mxCell>
                <mxCell id="xco-Sbekk9N-eOxt5Vlx-23" value="Zona" style="whiteSpace=wrap;html=1;align=center;fillColor=#d5e8d4;strokeColor=#82b366;" parent="1" vertex="1">
                    <mxGeometry x="750" y="90" width="100" height="40" as="geometry"/>
                </mxCell>
                <mxCell id="xco-Sbekk9N-eOxt5Vlx-39" style="rounded=0;orthogonalLoop=1;jettySize=auto;html=1;entryX=0.25;entryY=1;entryDx=0;entryDy=0;" parent="1" source="xco-Sbekk9N-eOxt5Vlx-24" target="xco-Sbekk9N-eOxt5Vlx-1" edge="1">
                    <mxGeometry relative="1" as="geometry"/>
                </mxCell>
                <mxCell id="xco-Sbekk9N-eOxt5Vlx-24" value="Id de la zona" style="ellipse;whiteSpace=wrap;html=1;align=center;fillColor=#fff2cc;strokeColor=#d6b656;" parent="1" vertex="1">
                    <mxGeometry x="10" y="160" width="100" height="40" as="geometry"/>
                </mxCell>
                <mxCell id="xco-Sbekk9N-eOxt5Vlx-25" value="Id de la zona" style="ellipse;whiteSpace=wrap;html=1;align=center;fontStyle=4;fillColor=#e1d5e7;strokeColor=#9673a6;" parent="1" vertex="1">
                    <mxGeometry x="640" y="130" width="100" height="40" as="geometry"/>
                </mxCell>
                <mxCell id="xco-Sbekk9N-eOxt5Vlx-46" style="rounded=0;orthogonalLoop=1;jettySize=auto;html=1;" parent="1" source="xco-Sbekk9N-eOxt5Vlx-26" target="xco-Sbekk9N-eOxt5Vlx-23" edge="1">
                    <mxGeometry relative="1" as="geometry"/>
                </mxCell>
                <mxCell id="xco-Sbekk9N-eOxt5Vlx-26" value="Nombre de la zona" style="ellipse;whiteSpace=wrap;html=1;align=center;fillColor=#dae8fc;strokeColor=#6c8ebf;" parent="1" vertex="1">
                    <mxGeometry x="630" y="60" width="100" height="40" as="geometry"/>
                </mxCell>
                <mxCell id="xco-Sbekk9N-eOxt5Vlx-47" style="rounded=0;orthogonalLoop=1;jettySize=auto;html=1;" parent="1" source="xco-Sbekk9N-eOxt5Vlx-27" target="xco-Sbekk9N-eOxt5Vlx-23" edge="1">
                    <mxGeometry relative="1" as="geometry"/>
                </mxCell>
                <mxCell id="xco-Sbekk9N-eOxt5Vlx-27" value="Código de la zona" style="ellipse;whiteSpace=wrap;html=1;align=center;fillColor=#dae8fc;strokeColor=#6c8ebf;" parent="1" vertex="1">
                    <mxGeometry x="750" y="20" width="100" height="40" as="geometry"/>
                </mxCell>
                <mxCell id="xco-Sbekk9N-eOxt5Vlx-48" style="rounded=0;orthogonalLoop=1;jettySize=auto;html=1;entryX=1;entryY=0.25;entryDx=0;entryDy=0;" parent="1" source="xco-Sbekk9N-eOxt5Vlx-28" target="xco-Sbekk9N-eOxt5Vlx-23" edge="1">
                    <mxGeometry relative="1" as="geometry"/>
                </mxCell>
                <mxCell id="xco-Sbekk9N-eOxt5Vlx-28" value="DataCreate" style="ellipse;whiteSpace=wrap;html=1;align=center;fillColor=#dae8fc;strokeColor=#6c8ebf;" parent="1" vertex="1">
                    <mxGeometry x="870" y="60" width="100" height="40" as="geometry"/>
                </mxCell>
                <mxCell id="xco-Sbekk9N-eOxt5Vlx-49" style="rounded=0;orthogonalLoop=1;jettySize=auto;html=1;entryX=1;entryY=1;entryDx=0;entryDy=0;" parent="1" source="xco-Sbekk9N-eOxt5Vlx-29" target="xco-Sbekk9N-eOxt5Vlx-23" edge="1">
                    <mxGeometry relative="1" as="geometry"/>
                </mxCell>
                <mxCell id="xco-Sbekk9N-eOxt5Vlx-29" value="Estado de la Zona" style="ellipse;whiteSpace=wrap;html=1;align=center;fillColor=#dae8fc;strokeColor=#6c8ebf;" parent="1" vertex="1">
                    <mxGeometry x="850" y="130" width="100" height="40" as="geometry"/>
                </mxCell>
                <mxCell id="xco-Sbekk9N-eOxt5Vlx-50" style="rounded=0;orthogonalLoop=1;jettySize=auto;html=1;" parent="1" source="xco-Sbekk9N-eOxt5Vlx-31" target="xco-Sbekk9N-eOxt5Vlx-23" edge="1">
                    <mxGeometry relative="1" as="geometry"/>
                </mxCell>
                <mxCell id="xco-Sbekk9N-eOxt5Vlx-31" value="Extensión" style="ellipse;whiteSpace=wrap;html=1;align=center;fillColor=#dae8fc;strokeColor=#6c8ebf;" parent="1" vertex="1">
                    <mxGeometry x="810" y="190" width="100" height="40" as="geometry"/>
                </mxCell>
                <mxCell id="xco-Sbekk9N-eOxt5Vlx-44" style="rounded=0;orthogonalLoop=1;jettySize=auto;html=1;entryX=0.101;entryY=0.125;entryDx=0;entryDy=0;entryPerimeter=0;" parent="1" source="xco-Sbekk9N-eOxt5Vlx-4" target="xco-Sbekk9N-eOxt5Vlx-1" edge="1">
                    <mxGeometry relative="1" as="geometry"/>
                </mxCell>
                <mxCell id="xco-Sbekk9N-eOxt5Vlx-51" style="rounded=0;orthogonalLoop=1;jettySize=auto;html=1;entryX=0.158;entryY=1.025;entryDx=0;entryDy=0;entryPerimeter=0;" parent="1" source="xco-Sbekk9N-eOxt5Vlx-25" target="xco-Sbekk9N-eOxt5Vlx-23" edge="1">
                    <mxGeometry relative="1" as="geometry"/>
                </mxCell>
                <mxCell id="xco-Sbekk9N-eOxt5Vlx-59" style="edgeStyle=orthogonalEdgeStyle;rounded=0;orthogonalLoop=1;jettySize=auto;html=1;entryX=1;entryY=0.5;entryDx=0;entryDy=0;endArrow=none;startFill=0;" parent="1" source="xco-Sbekk9N-eOxt5Vlx-57" target="xco-Sbekk9N-eOxt5Vlx-1" edge="1">
                    <mxGeometry relative="1" as="geometry"/>
                </mxCell>
                <mxCell id="xco-Sbekk9N-eOxt5Vlx-60" style="edgeStyle=orthogonalEdgeStyle;rounded=0;orthogonalLoop=1;jettySize=auto;html=1;entryX=0;entryY=0.75;entryDx=0;entryDy=0;endArrow=none;startFill=0;" parent="1" source="xco-Sbekk9N-eOxt5Vlx-57" target="xco-Sbekk9N-eOxt5Vlx-23" edge="1">
                    <mxGeometry relative="1" as="geometry"/>
                </mxCell>
                <mxCell id="xco-Sbekk9N-eOxt5Vlx-57" value="Relationship" style="shape=rhombus;perimeter=rhombusPerimeter;whiteSpace=wrap;html=1;align=center;fillColor=#f8cecc;strokeColor=#b85450;" parent="1" vertex="1">
                    <mxGeometry x="410" y="90" width="120" height="60" as="geometry"/>
                </mxCell>
                <mxCell id="xco-Sbekk9N-eOxt5Vlx-61" value="N:1" style="text;html=1;align=center;verticalAlign=middle;resizable=0;points=[];autosize=1;strokeColor=none;fillColor=none;" parent="1" vertex="1">
                    <mxGeometry x="450" y="50" width="40" height="30" as="geometry"/>
                </mxCell>
                <mxCell id="xco-Sbekk9N-eOxt5Vlx-65" style="edgeStyle=orthogonalEdgeStyle;rounded=0;orthogonalLoop=1;jettySize=auto;html=1;entryX=0.5;entryY=1;entryDx=0;entryDy=0;endArrow=none;startFill=0;" parent="1" source="xco-Sbekk9N-eOxt5Vlx-63" target="xco-Sbekk9N-eOxt5Vlx-23" edge="1">
                    <mxGeometry relative="1" as="geometry"/>
                </mxCell>
                <mxCell id="xco-Sbekk9N-eOxt5Vlx-63" value="Relationship" style="shape=rhombus;perimeter=rhombusPerimeter;whiteSpace=wrap;html=1;align=center;fillColor=#f8cecc;strokeColor=#b85450;" parent="1" vertex="1">
                    <mxGeometry x="740" y="300" width="120" height="60" as="geometry"/>
                </mxCell>
                <mxCell id="xco-Sbekk9N-eOxt5Vlx-76" style="edgeStyle=orthogonalEdgeStyle;rounded=0;orthogonalLoop=1;jettySize=auto;html=1;endArrow=none;startFill=0;" parent="1" source="xco-Sbekk9N-eOxt5Vlx-66" target="xco-Sbekk9N-eOxt5Vlx-63" edge="1">
                    <mxGeometry relative="1" as="geometry"/>
                </mxCell>
                <mxCell id="xco-Sbekk9N-eOxt5Vlx-148" style="edgeStyle=orthogonalEdgeStyle;rounded=0;orthogonalLoop=1;jettySize=auto;html=1;endArrow=none;startFill=0;" parent="1" source="xco-Sbekk9N-eOxt5Vlx-66" target="xco-Sbekk9N-eOxt5Vlx-147" edge="1">
                    <mxGeometry relative="1" as="geometry"/>
                </mxCell>
                <mxCell id="xco-Sbekk9N-eOxt5Vlx-66" value="Itinerario Zona" style="whiteSpace=wrap;html=1;align=center;fillColor=#d5e8d4;strokeColor=#82b366;" parent="1" vertex="1">
                    <mxGeometry x="750" y="520" width="100" height="40" as="geometry"/>
                </mxCell>
                <mxCell id="xco-Sbekk9N-eOxt5Vlx-73" style="rounded=0;orthogonalLoop=1;jettySize=auto;html=1;entryX=0;entryY=0.5;entryDx=0;entryDy=0;" parent="1" source="xco-Sbekk9N-eOxt5Vlx-67" target="xco-Sbekk9N-eOxt5Vlx-66" edge="1">
                    <mxGeometry relative="1" as="geometry"/>
                </mxCell>
                <mxCell id="xco-Sbekk9N-eOxt5Vlx-67" value="Id Itinerario zona" style="ellipse;whiteSpace=wrap;html=1;align=center;fontStyle=4;fillColor=#e1d5e7;strokeColor=#9673a6;" parent="1" vertex="1">
                    <mxGeometry x="650" y="570" width="100" height="40" as="geometry"/>
                </mxCell>
                <mxCell id="xco-Sbekk9N-eOxt5Vlx-75" style="rounded=0;orthogonalLoop=1;jettySize=auto;html=1;entryX=1;entryY=0.5;entryDx=0;entryDy=0;" parent="1" source="xco-Sbekk9N-eOxt5Vlx-68" target="xco-Sbekk9N-eOxt5Vlx-66" edge="1">
                    <mxGeometry relative="1" as="geometry"/>
                </mxCell>
                <mxCell id="xco-Sbekk9N-eOxt5Vlx-68" value="Estado del itinerario zona" style="ellipse;whiteSpace=wrap;html=1;align=center;fillColor=#dae8fc;strokeColor=#6c8ebf;" parent="1" vertex="1">
                    <mxGeometry x="860" y="570" width="100" height="40" as="geometry"/>
                </mxCell>
                <mxCell id="xco-Sbekk9N-eOxt5Vlx-74" style="rounded=0;orthogonalLoop=1;jettySize=auto;html=1;entryX=1;entryY=0.5;entryDx=0;entryDy=0;" parent="1" source="xco-Sbekk9N-eOxt5Vlx-70" target="xco-Sbekk9N-eOxt5Vlx-66" edge="1">
                    <mxGeometry relative="1" as="geometry"/>
                </mxCell>
                <mxCell id="xco-Sbekk9N-eOxt5Vlx-70" value="DataCreate" style="ellipse;whiteSpace=wrap;html=1;align=center;fillColor=#dae8fc;strokeColor=#6c8ebf;" parent="1" vertex="1">
                    <mxGeometry x="860" y="470" width="100" height="40" as="geometry"/>
                </mxCell>
                <mxCell id="xco-Sbekk9N-eOxt5Vlx-72" style="rounded=0;orthogonalLoop=1;jettySize=auto;html=1;entryX=0;entryY=0.5;entryDx=0;entryDy=0;" parent="1" source="xco-Sbekk9N-eOxt5Vlx-71" target="xco-Sbekk9N-eOxt5Vlx-66" edge="1">
                    <mxGeometry relative="1" as="geometry"/>
                </mxCell>
                <mxCell id="xco-Sbekk9N-eOxt5Vlx-71" value="Id de la zona" style="ellipse;whiteSpace=wrap;html=1;align=center;fillColor=#fff2cc;strokeColor=#d6b656;" parent="1" vertex="1">
                    <mxGeometry x="640" y="470" width="100" height="40" as="geometry"/>
                </mxCell>
                <mxCell id="xco-Sbekk9N-eOxt5Vlx-77" value="EspecieHabitad" style="whiteSpace=wrap;html=1;align=center;fillColor=#d5e8d4;strokeColor=#82b366;" parent="1" vertex="1">
                    <mxGeometry x="80" y="-440" width="100" height="40" as="geometry"/>
                </mxCell>
                <mxCell id="xco-Sbekk9N-eOxt5Vlx-83" style="rounded=0;orthogonalLoop=1;jettySize=auto;html=1;" parent="1" source="xco-Sbekk9N-eOxt5Vlx-78" target="xco-Sbekk9N-eOxt5Vlx-77" edge="1">
                    <mxGeometry relative="1" as="geometry"/>
                </mxCell>
                <mxCell id="xco-Sbekk9N-eOxt5Vlx-78" value="DataCreate" style="ellipse;whiteSpace=wrap;html=1;align=center;fillColor=#dae8fc;strokeColor=#6c8ebf;" parent="1" vertex="1">
                    <mxGeometry x="-30" y="-400" width="100" height="40" as="geometry"/>
                </mxCell>
                <mxCell id="xco-Sbekk9N-eOxt5Vlx-82" style="rounded=0;orthogonalLoop=1;jettySize=auto;html=1;" parent="1" source="xco-Sbekk9N-eOxt5Vlx-79" target="xco-Sbekk9N-eOxt5Vlx-77" edge="1">
                    <mxGeometry relative="1" as="geometry"/>
                </mxCell>
                <mxCell id="xco-Sbekk9N-eOxt5Vlx-79" value="Id Especie Habitad" style="ellipse;whiteSpace=wrap;html=1;align=center;fontStyle=4;fillColor=#e1d5e7;strokeColor=#9673a6;" parent="1" vertex="1">
                    <mxGeometry x="-40" y="-480" width="100" height="40" as="geometry"/>
                </mxCell>
                <mxCell id="xco-Sbekk9N-eOxt5Vlx-80" value="Id Habitad" style="ellipse;whiteSpace=wrap;html=1;align=center;fillColor=#fff2cc;strokeColor=#d6b656;" parent="1" vertex="1">
                    <mxGeometry x="190" y="-480" width="100" height="40" as="geometry"/>
                </mxCell>
                <mxCell id="xco-Sbekk9N-eOxt5Vlx-85" style="rounded=0;orthogonalLoop=1;jettySize=auto;html=1;entryX=0.75;entryY=1;entryDx=0;entryDy=0;" parent="1" source="xco-Sbekk9N-eOxt5Vlx-81" target="xco-Sbekk9N-eOxt5Vlx-77" edge="1">
                    <mxGeometry relative="1" as="geometry"/>
                </mxCell>
                <mxCell id="xco-Sbekk9N-eOxt5Vlx-81" value="Estado de Especie habitad" style="ellipse;whiteSpace=wrap;html=1;align=center;fillColor=#dae8fc;strokeColor=#6c8ebf;" parent="1" vertex="1">
                    <mxGeometry x="190" y="-400" width="100" height="40" as="geometry"/>
                </mxCell>
                <mxCell id="xco-Sbekk9N-eOxt5Vlx-84" style="rounded=0;orthogonalLoop=1;jettySize=auto;html=1;entryX=0.912;entryY=-0.045;entryDx=0;entryDy=0;entryPerimeter=0;" parent="1" source="xco-Sbekk9N-eOxt5Vlx-80" target="xco-Sbekk9N-eOxt5Vlx-77" edge="1">
                    <mxGeometry relative="1" as="geometry"/>
                </mxCell>
                <mxCell id="xco-Sbekk9N-eOxt5Vlx-87" style="edgeStyle=orthogonalEdgeStyle;rounded=0;orthogonalLoop=1;jettySize=auto;html=1;entryX=0.5;entryY=1;entryDx=0;entryDy=0;endArrow=none;endFill=1;startFill=0;" parent="1" source="xco-Sbekk9N-eOxt5Vlx-86" target="xco-Sbekk9N-eOxt5Vlx-77" edge="1">
                    <mxGeometry relative="1" as="geometry"/>
                </mxCell>
                <mxCell id="xco-Sbekk9N-eOxt5Vlx-88" style="edgeStyle=orthogonalEdgeStyle;rounded=0;orthogonalLoop=1;jettySize=auto;html=1;entryX=0.5;entryY=0;entryDx=0;entryDy=0;endArrow=none;startFill=0;" parent="1" source="xco-Sbekk9N-eOxt5Vlx-86" target="xco-Sbekk9N-eOxt5Vlx-1" edge="1">
                    <mxGeometry relative="1" as="geometry"/>
                </mxCell>
                <mxCell id="xco-Sbekk9N-eOxt5Vlx-86" value="Relationship" style="shape=rhombus;perimeter=rhombusPerimeter;whiteSpace=wrap;html=1;align=center;fillColor=#f8cecc;strokeColor=#b85450;" parent="1" vertex="1">
                    <mxGeometry x="70" y="-225" width="120" height="60" as="geometry"/>
                </mxCell>
                <mxCell id="xco-Sbekk9N-eOxt5Vlx-89" value="N:1" style="text;html=1;align=center;verticalAlign=middle;resizable=0;points=[];autosize=1;strokeColor=none;fillColor=none;" parent="1" vertex="1">
                    <mxGeometry x="10" y="-210" width="40" height="30" as="geometry"/>
                </mxCell>
                <mxCell id="xco-Sbekk9N-eOxt5Vlx-91" value="Especie" style="whiteSpace=wrap;html=1;align=center;fillColor=#d5e8d4;strokeColor=#82b366;" parent="1" vertex="1">
                    <mxGeometry x="790" y="-440" width="100" height="40" as="geometry"/>
                </mxCell>
                <mxCell id="xco-Sbekk9N-eOxt5Vlx-100" style="rounded=0;orthogonalLoop=1;jettySize=auto;html=1;entryX=0.25;entryY=0;entryDx=0;entryDy=0;" parent="1" source="xco-Sbekk9N-eOxt5Vlx-92" target="xco-Sbekk9N-eOxt5Vlx-91" edge="1">
                    <mxGeometry relative="1" as="geometry"/>
                </mxCell>
                <mxCell id="xco-Sbekk9N-eOxt5Vlx-92" value="Id de la especie" style="ellipse;whiteSpace=wrap;html=1;align=center;fillColor=#e1d5e7;strokeColor=#9673a6;" parent="1" vertex="1">
                    <mxGeometry x="690" y="-480" width="100" height="40" as="geometry"/>
                </mxCell>
                <mxCell id="xco-Sbekk9N-eOxt5Vlx-99" style="rounded=0;orthogonalLoop=1;jettySize=auto;html=1;entryX=0.5;entryY=0;entryDx=0;entryDy=0;" parent="1" source="xco-Sbekk9N-eOxt5Vlx-93" target="xco-Sbekk9N-eOxt5Vlx-91" edge="1">
                    <mxGeometry relative="1" as="geometry"/>
                </mxCell>
                <mxCell id="xco-Sbekk9N-eOxt5Vlx-93" value="Nombre de la especie" style="ellipse;whiteSpace=wrap;html=1;align=center;fillColor=#dae8fc;strokeColor=#6c8ebf;" parent="1" vertex="1">
                    <mxGeometry x="790" y="-520" width="100" height="40" as="geometry"/>
                </mxCell>
                <mxCell id="xco-Sbekk9N-eOxt5Vlx-98" style="rounded=0;orthogonalLoop=1;jettySize=auto;html=1;entryX=0.75;entryY=0;entryDx=0;entryDy=0;" parent="1" source="xco-Sbekk9N-eOxt5Vlx-94" target="xco-Sbekk9N-eOxt5Vlx-91" edge="1">
                    <mxGeometry relative="1" as="geometry"/>
                </mxCell>
                <mxCell id="xco-Sbekk9N-eOxt5Vlx-94" value="Nombre cientifico" style="ellipse;whiteSpace=wrap;html=1;align=center;fillColor=#dae8fc;strokeColor=#6c8ebf;" parent="1" vertex="1">
                    <mxGeometry x="900" y="-480" width="100" height="40" as="geometry"/>
                </mxCell>
                <mxCell id="xco-Sbekk9N-eOxt5Vlx-101" style="rounded=0;orthogonalLoop=1;jettySize=auto;html=1;" parent="1" source="xco-Sbekk9N-eOxt5Vlx-95" target="xco-Sbekk9N-eOxt5Vlx-91" edge="1">
                    <mxGeometry relative="1" as="geometry"/>
                </mxCell>
                <mxCell id="xco-Sbekk9N-eOxt5Vlx-95" value="Estado de la especie" style="ellipse;whiteSpace=wrap;html=1;align=center;fillColor=#dae8fc;strokeColor=#6c8ebf;" parent="1" vertex="1">
                    <mxGeometry x="690" y="-400" width="100" height="40" as="geometry"/>
                </mxCell>
                <mxCell id="xco-Sbekk9N-eOxt5Vlx-96" value="DataCreate" style="ellipse;whiteSpace=wrap;html=1;align=center;fillColor=#dae8fc;strokeColor=#6c8ebf;" parent="1" vertex="1">
                    <mxGeometry x="800" y="-360" width="100" height="40" as="geometry"/>
                </mxCell>
                <mxCell id="xco-Sbekk9N-eOxt5Vlx-103" style="rounded=0;orthogonalLoop=1;jettySize=auto;html=1;" parent="1" source="xco-Sbekk9N-eOxt5Vlx-97" target="xco-Sbekk9N-eOxt5Vlx-91" edge="1">
                    <mxGeometry relative="1" as="geometry"/>
                </mxCell>
                <mxCell id="xco-Sbekk9N-eOxt5Vlx-97" value="Descripción" style="ellipse;whiteSpace=wrap;html=1;align=center;fillColor=#dae8fc;strokeColor=#6c8ebf;" parent="1" vertex="1">
                    <mxGeometry x="920" y="-400" width="100" height="40" as="geometry"/>
                </mxCell>
                <mxCell id="xco-Sbekk9N-eOxt5Vlx-102" style="rounded=0;orthogonalLoop=1;jettySize=auto;html=1;entryX=0.611;entryY=0.924;entryDx=0;entryDy=0;entryPerimeter=0;" parent="1" source="xco-Sbekk9N-eOxt5Vlx-96" target="xco-Sbekk9N-eOxt5Vlx-91" edge="1">
                    <mxGeometry relative="1" as="geometry"/>
                </mxCell>
                <mxCell id="xco-Sbekk9N-eOxt5Vlx-105" style="edgeStyle=orthogonalEdgeStyle;rounded=0;orthogonalLoop=1;jettySize=auto;html=1;exitX=1;exitY=0.5;exitDx=0;exitDy=0;endArrow=none;startFill=0;" parent="1" source="xco-Sbekk9N-eOxt5Vlx-104" target="xco-Sbekk9N-eOxt5Vlx-91" edge="1">
                    <mxGeometry relative="1" as="geometry"/>
                </mxCell>
                <mxCell id="xco-Sbekk9N-eOxt5Vlx-106" style="edgeStyle=orthogonalEdgeStyle;rounded=0;orthogonalLoop=1;jettySize=auto;html=1;entryX=1;entryY=0.5;entryDx=0;entryDy=0;endArrow=none;startFill=0;" parent="1" source="xco-Sbekk9N-eOxt5Vlx-104" target="xco-Sbekk9N-eOxt5Vlx-77" edge="1">
                    <mxGeometry relative="1" as="geometry"/>
                </mxCell>
                <mxCell id="xco-Sbekk9N-eOxt5Vlx-104" value="Relationship" style="shape=rhombus;perimeter=rhombusPerimeter;whiteSpace=wrap;html=1;align=center;fillColor=#f8cecc;strokeColor=#b85450;" parent="1" vertex="1">
                    <mxGeometry x="410" y="-450" width="120" height="60" as="geometry"/>
                </mxCell>
                <mxCell id="xco-Sbekk9N-eOxt5Vlx-108" value="Cuidador Especie" style="whiteSpace=wrap;html=1;align=center;fillColor=#d5e8d4;strokeColor=#82b366;" parent="1" vertex="1">
                    <mxGeometry x="1570" y="-450" width="100" height="40" as="geometry"/>
                </mxCell>
                <mxCell id="xco-Sbekk9N-eOxt5Vlx-110" value="DataCreate" style="ellipse;whiteSpace=wrap;html=1;align=center;fillColor=#dae8fc;strokeColor=#6c8ebf;" parent="1" vertex="1">
                    <mxGeometry x="1450" y="-490" width="100" height="40" as="geometry"/>
                </mxCell>
                <mxCell id="xco-Sbekk9N-eOxt5Vlx-118" style="rounded=0;orthogonalLoop=1;jettySize=auto;html=1;entryX=1;entryY=0;entryDx=0;entryDy=0;" parent="1" source="xco-Sbekk9N-eOxt5Vlx-111" target="xco-Sbekk9N-eOxt5Vlx-108" edge="1">
                    <mxGeometry relative="1" as="geometry"/>
                </mxCell>
                <mxCell id="xco-Sbekk9N-eOxt5Vlx-111" value="Id Empleado" style="ellipse;whiteSpace=wrap;html=1;align=center;fillColor=#fff2cc;strokeColor=#d6b656;" parent="1" vertex="1">
                    <mxGeometry x="1700" y="-500" width="100" height="40" as="geometry"/>
                </mxCell>
                <mxCell id="xco-Sbekk9N-eOxt5Vlx-119" style="rounded=0;orthogonalLoop=1;jettySize=auto;html=1;entryX=1;entryY=1;entryDx=0;entryDy=0;" parent="1" source="xco-Sbekk9N-eOxt5Vlx-112" target="xco-Sbekk9N-eOxt5Vlx-108" edge="1">
                    <mxGeometry relative="1" as="geometry"/>
                </mxCell>
                <mxCell id="xco-Sbekk9N-eOxt5Vlx-112" value="Id Especie" style="ellipse;whiteSpace=wrap;html=1;align=center;fillColor=#fff2cc;strokeColor=#d6b656;" parent="1" vertex="1">
                    <mxGeometry x="1700" y="-410" width="100" height="40" as="geometry"/>
                </mxCell>
                <mxCell id="xco-Sbekk9N-eOxt5Vlx-120" style="rounded=0;orthogonalLoop=1;jettySize=auto;html=1;entryX=0;entryY=0.75;entryDx=0;entryDy=0;" parent="1" source="xco-Sbekk9N-eOxt5Vlx-113" target="xco-Sbekk9N-eOxt5Vlx-108" edge="1">
                    <mxGeometry relative="1" as="geometry"/>
                </mxCell>
                <mxCell id="xco-Sbekk9N-eOxt5Vlx-113" value="Estado cuidador especie" style="ellipse;whiteSpace=wrap;html=1;align=center;fillColor=#dae8fc;strokeColor=#6c8ebf;" parent="1" vertex="1">
                    <mxGeometry x="1450" y="-400" width="100" height="40" as="geometry"/>
                </mxCell>
                <mxCell id="xco-Sbekk9N-eOxt5Vlx-122" style="rounded=0;orthogonalLoop=1;jettySize=auto;html=1;" parent="1" source="xco-Sbekk9N-eOxt5Vlx-114" target="xco-Sbekk9N-eOxt5Vlx-108" edge="1">
                    <mxGeometry relative="1" as="geometry"/>
                </mxCell>
                <mxCell id="xco-Sbekk9N-eOxt5Vlx-114" value="Fecha de asignación" style="ellipse;whiteSpace=wrap;html=1;align=center;fillColor=#dae8fc;strokeColor=#6c8ebf;" parent="1" vertex="1">
                    <mxGeometry x="1680" y="-340" width="100" height="40" as="geometry"/>
                </mxCell>
                <mxCell id="xco-Sbekk9N-eOxt5Vlx-121" style="rounded=0;orthogonalLoop=1;jettySize=auto;html=1;" parent="1" source="xco-Sbekk9N-eOxt5Vlx-110" edge="1">
                    <mxGeometry relative="1" as="geometry">
                        <mxPoint x="1570" y="-450" as="targetPoint"/>
                    </mxGeometry>
                </mxCell>
                <mxCell id="xco-Sbekk9N-eOxt5Vlx-124" style="edgeStyle=orthogonalEdgeStyle;rounded=0;orthogonalLoop=1;jettySize=auto;html=1;entryX=0;entryY=0.75;entryDx=0;entryDy=0;endArrow=none;startFill=0;" parent="1" source="xco-Sbekk9N-eOxt5Vlx-123" target="xco-Sbekk9N-eOxt5Vlx-108" edge="1">
                    <mxGeometry relative="1" as="geometry"/>
                </mxCell>
                <mxCell id="xco-Sbekk9N-eOxt5Vlx-126" style="edgeStyle=orthogonalEdgeStyle;rounded=0;orthogonalLoop=1;jettySize=auto;html=1;entryX=1;entryY=0.5;entryDx=0;entryDy=0;endArrow=none;startFill=0;" parent="1" source="xco-Sbekk9N-eOxt5Vlx-123" target="xco-Sbekk9N-eOxt5Vlx-91" edge="1">
                    <mxGeometry relative="1" as="geometry"/>
                </mxCell>
                <mxCell id="xco-Sbekk9N-eOxt5Vlx-123" value="Relationship" style="shape=rhombus;perimeter=rhombusPerimeter;whiteSpace=wrap;html=1;align=center;fillColor=#f8cecc;strokeColor=#b85450;" parent="1" vertex="1">
                    <mxGeometry x="1180" y="-450" width="120" height="60" as="geometry"/>
                </mxCell>
                <mxCell id="xco-Sbekk9N-eOxt5Vlx-128" value="Itinerarario" style="whiteSpace=wrap;html=1;align=center;fillColor=#d5e8d4;strokeColor=#82b366;" parent="1" vertex="1">
                    <mxGeometry x="40" y="520" width="100" height="40" as="geometry"/>
                </mxCell>
                <mxCell id="xco-Sbekk9N-eOxt5Vlx-139" style="rounded=0;orthogonalLoop=1;jettySize=auto;html=1;entryX=0;entryY=0.25;entryDx=0;entryDy=0;" parent="1" source="xco-Sbekk9N-eOxt5Vlx-129" target="xco-Sbekk9N-eOxt5Vlx-128" edge="1">
                    <mxGeometry relative="1" as="geometry"/>
                </mxCell>
                <mxCell id="xco-Sbekk9N-eOxt5Vlx-129" value="Id itinerario" style="ellipse;whiteSpace=wrap;html=1;align=center;fontStyle=4;fillColor=#e1d5e7;strokeColor=#9673a6;" parent="1" vertex="1">
                    <mxGeometry x="-50" y="430" width="100" height="40" as="geometry"/>
                </mxCell>
                <mxCell id="xco-Sbekk9N-eOxt5Vlx-140" style="rounded=0;orthogonalLoop=1;jettySize=auto;html=1;" parent="1" source="xco-Sbekk9N-eOxt5Vlx-131" edge="1">
                    <mxGeometry relative="1" as="geometry">
                        <mxPoint x="40" y="560" as="targetPoint"/>
                    </mxGeometry>
                </mxCell>
                <mxCell id="xco-Sbekk9N-eOxt5Vlx-131" value="Numero de especies" style="ellipse;whiteSpace=wrap;html=1;align=center;fillColor=#dae8fc;strokeColor=#6c8ebf;" parent="1" vertex="1">
                    <mxGeometry x="-110" y="500" width="100" height="40" as="geometry"/>
                </mxCell>
                <mxCell id="xco-Sbekk9N-eOxt5Vlx-132" value="Fecha" style="ellipse;whiteSpace=wrap;html=1;align=center;fillColor=#dae8fc;strokeColor=#6c8ebf;" parent="1" vertex="1">
                    <mxGeometry x="-100" y="580" width="100" height="40" as="geometry"/>
                </mxCell>
                <mxCell id="xco-Sbekk9N-eOxt5Vlx-143" style="rounded=0;orthogonalLoop=1;jettySize=auto;html=1;entryX=0.75;entryY=1;entryDx=0;entryDy=0;" parent="1" source="xco-Sbekk9N-eOxt5Vlx-133" target="xco-Sbekk9N-eOxt5Vlx-128" edge="1">
                    <mxGeometry relative="1" as="geometry"/>
                </mxCell>
                <mxCell id="xco-Sbekk9N-eOxt5Vlx-133" value="Máximo de visitantes" style="ellipse;whiteSpace=wrap;html=1;align=center;fillColor=#dae8fc;strokeColor=#6c8ebf;" parent="1" vertex="1">
                    <mxGeometry x="150" y="620" width="100" height="40" as="geometry"/>
                </mxCell>
                <mxCell id="xco-Sbekk9N-eOxt5Vlx-144" style="rounded=0;orthogonalLoop=1;jettySize=auto;html=1;entryX=1;entryY=0.5;entryDx=0;entryDy=0;" parent="1" source="xco-Sbekk9N-eOxt5Vlx-134" target="xco-Sbekk9N-eOxt5Vlx-128" edge="1">
                    <mxGeometry relative="1" as="geometry"/>
                </mxCell>
                <mxCell id="xco-Sbekk9N-eOxt5Vlx-134" value="Longitud" style="ellipse;whiteSpace=wrap;html=1;align=center;fillColor=#dae8fc;strokeColor=#6c8ebf;" parent="1" vertex="1">
                    <mxGeometry x="200" y="570" width="100" height="40" as="geometry"/>
                </mxCell>
                <mxCell id="xco-Sbekk9N-eOxt5Vlx-145" style="rounded=0;orthogonalLoop=1;jettySize=auto;html=1;entryX=1;entryY=0;entryDx=0;entryDy=0;" parent="1" source="xco-Sbekk9N-eOxt5Vlx-135" target="xco-Sbekk9N-eOxt5Vlx-128" edge="1">
                    <mxGeometry relative="1" as="geometry"/>
                </mxCell>
                <mxCell id="xco-Sbekk9N-eOxt5Vlx-135" value="Duración" style="ellipse;whiteSpace=wrap;html=1;align=center;fillColor=#dae8fc;strokeColor=#6c8ebf;" parent="1" vertex="1">
                    <mxGeometry x="160" y="430" width="100" height="40" as="geometry"/>
                </mxCell>
                <mxCell id="xco-Sbekk9N-eOxt5Vlx-138" style="rounded=0;orthogonalLoop=1;jettySize=auto;html=1;" parent="1" source="xco-Sbekk9N-eOxt5Vlx-136" target="xco-Sbekk9N-eOxt5Vlx-128" edge="1">
                    <mxGeometry relative="1" as="geometry"/>
                </mxCell>
                <mxCell id="xco-Sbekk9N-eOxt5Vlx-136" value="Código" style="ellipse;whiteSpace=wrap;html=1;align=center;fillColor=#dae8fc;strokeColor=#6c8ebf;" parent="1" vertex="1">
                    <mxGeometry x="50" y="420" width="100" height="40" as="geometry"/>
                </mxCell>
                <mxCell id="xco-Sbekk9N-eOxt5Vlx-142" style="rounded=0;orthogonalLoop=1;jettySize=auto;html=1;" parent="1" source="xco-Sbekk9N-eOxt5Vlx-137" target="xco-Sbekk9N-eOxt5Vlx-128" edge="1">
                    <mxGeometry relative="1" as="geometry"/>
                </mxCell>
                <mxCell id="xco-Sbekk9N-eOxt5Vlx-137" value="Hora" style="ellipse;whiteSpace=wrap;html=1;align=center;fillColor=#dae8fc;strokeColor=#6c8ebf;" parent="1" vertex="1">
                    <mxGeometry x="-60" y="630" width="100" height="40" as="geometry"/>
                </mxCell>
                <mxCell id="xco-Sbekk9N-eOxt5Vlx-141" style="rounded=0;orthogonalLoop=1;jettySize=auto;html=1;entryX=0.4;entryY=1;entryDx=0;entryDy=0;entryPerimeter=0;" parent="1" source="xco-Sbekk9N-eOxt5Vlx-132" target="xco-Sbekk9N-eOxt5Vlx-128" edge="1">
                    <mxGeometry relative="1" as="geometry"/>
                </mxCell>
                <mxCell id="xco-Sbekk9N-eOxt5Vlx-146" value="1:1" style="text;html=1;align=center;verticalAlign=middle;resizable=0;points=[];autosize=1;strokeColor=none;fillColor=none;" parent="1" vertex="1">
                    <mxGeometry x="880" y="318" width="40" height="30" as="geometry"/>
                </mxCell>
                <mxCell id="xco-Sbekk9N-eOxt5Vlx-149" style="edgeStyle=orthogonalEdgeStyle;rounded=0;orthogonalLoop=1;jettySize=auto;html=1;entryX=1;entryY=0.5;entryDx=0;entryDy=0;" parent="1" source="xco-Sbekk9N-eOxt5Vlx-147" target="xco-Sbekk9N-eOxt5Vlx-128" edge="1">
                    <mxGeometry relative="1" as="geometry"/>
                </mxCell>
                <mxCell id="xco-Sbekk9N-eOxt5Vlx-147" value="Relationship" style="shape=rhombus;perimeter=rhombusPerimeter;whiteSpace=wrap;html=1;align=center;fillColor=#f8cecc;strokeColor=#b85450;" parent="1" vertex="1">
                    <mxGeometry x="400" y="520" width="120" height="60" as="geometry"/>
                </mxCell>
                <mxCell id="xco-Sbekk9N-eOxt5Vlx-152" style="rounded=0;orthogonalLoop=1;jettySize=auto;html=1;" parent="1" source="xco-Sbekk9N-eOxt5Vlx-151" target="xco-Sbekk9N-eOxt5Vlx-77" edge="1">
                    <mxGeometry relative="1" as="geometry"/>
                </mxCell>
                <mxCell id="xco-Sbekk9N-eOxt5Vlx-151" value="Id especie" style="ellipse;whiteSpace=wrap;html=1;align=center;fillColor=#fff2cc;strokeColor=#d6b656;" parent="1" vertex="1">
                    <mxGeometry x="80" y="-550" width="100" height="40" as="geometry"/>
                </mxCell>
                <mxCell id="xco-Sbekk9N-eOxt5Vlx-153" value="N:N" style="text;html=1;align=center;verticalAlign=middle;resizable=0;points=[];autosize=1;strokeColor=none;fillColor=none;" parent="1" vertex="1">
                    <mxGeometry x="450" y="-485" width="40" height="30" as="geometry"/>
                </mxCell>
                <mxCell id="xco-Sbekk9N-eOxt5Vlx-154" value="N:N" style="text;html=1;align=center;verticalAlign=middle;resizable=0;points=[];autosize=1;strokeColor=none;fillColor=none;" parent="1" vertex="1">
                    <mxGeometry x="1220" y="-502" width="40" height="30" as="geometry"/>
                </mxCell>
                <mxCell id="xco-Sbekk9N-eOxt5Vlx-202" style="edgeStyle=orthogonalEdgeStyle;rounded=0;orthogonalLoop=1;jettySize=auto;html=1;entryX=0;entryY=0.5;entryDx=0;entryDy=0;endArrow=none;startFill=0;" parent="1" source="xco-Sbekk9N-eOxt5Vlx-155" target="xco-Sbekk9N-eOxt5Vlx-168" edge="1">
                    <mxGeometry relative="1" as="geometry"/>
                </mxCell>
                <mxCell id="xco-Sbekk9N-eOxt5Vlx-155" value="Guia itinerario" style="whiteSpace=wrap;html=1;align=center;fillColor=#d5e8d4;strokeColor=#82b366;" parent="1" vertex="1">
                    <mxGeometry x="40" y="930" width="100" height="40" as="geometry"/>
                </mxCell>
                <mxCell id="xco-Sbekk9N-eOxt5Vlx-160" style="rounded=0;orthogonalLoop=1;jettySize=auto;html=1;entryX=0;entryY=1;entryDx=0;entryDy=0;" parent="1" source="xco-Sbekk9N-eOxt5Vlx-156" target="xco-Sbekk9N-eOxt5Vlx-155" edge="1">
                    <mxGeometry relative="1" as="geometry"/>
                </mxCell>
                <mxCell id="xco-Sbekk9N-eOxt5Vlx-156" value="IdItinerario" style="ellipse;whiteSpace=wrap;html=1;align=center;fillColor=#fff2cc;strokeColor=#d6b656;" parent="1" vertex="1">
                    <mxGeometry x="-80" y="980" width="100" height="40" as="geometry"/>
                </mxCell>
                <mxCell id="xco-Sbekk9N-eOxt5Vlx-161" style="rounded=0;orthogonalLoop=1;jettySize=auto;html=1;entryX=0;entryY=0.25;entryDx=0;entryDy=0;" parent="1" source="xco-Sbekk9N-eOxt5Vlx-157" target="xco-Sbekk9N-eOxt5Vlx-155" edge="1">
                    <mxGeometry relative="1" as="geometry">
                        <mxPoint x="30" y="930" as="targetPoint"/>
                    </mxGeometry>
                </mxCell>
                <mxCell id="xco-Sbekk9N-eOxt5Vlx-157" value="IdEmpleado" style="ellipse;whiteSpace=wrap;html=1;align=center;fillColor=#fff2cc;strokeColor=#d6b656;" parent="1" vertex="1">
                    <mxGeometry x="-80" y="870" width="100" height="40" as="geometry"/>
                </mxCell>
                <mxCell id="xco-Sbekk9N-eOxt5Vlx-163" style="rounded=0;orthogonalLoop=1;jettySize=auto;html=1;" parent="1" source="xco-Sbekk9N-eOxt5Vlx-158" target="xco-Sbekk9N-eOxt5Vlx-155" edge="1">
                    <mxGeometry relative="1" as="geometry"/>
                </mxCell>
                <mxCell id="xco-Sbekk9N-eOxt5Vlx-158" value="Estado Guía Itinerario" style="ellipse;whiteSpace=wrap;html=1;align=center;fillColor=#dae8fc;strokeColor=#6c8ebf;" parent="1" vertex="1">
                    <mxGeometry x="160" y="880" width="100" height="40" as="geometry"/>
                </mxCell>
                <mxCell id="xco-Sbekk9N-eOxt5Vlx-159" value="DataCreate" style="ellipse;whiteSpace=wrap;html=1;align=center;fillColor=#dae8fc;strokeColor=#6c8ebf;" parent="1" vertex="1">
                    <mxGeometry x="160" y="980" width="100" height="40" as="geometry"/>
                </mxCell>
                <mxCell id="xco-Sbekk9N-eOxt5Vlx-164" style="rounded=0;orthogonalLoop=1;jettySize=auto;html=1;entryX=0.9;entryY=1;entryDx=0;entryDy=0;entryPerimeter=0;" parent="1" source="xco-Sbekk9N-eOxt5Vlx-159" target="xco-Sbekk9N-eOxt5Vlx-155" edge="1">
                    <mxGeometry relative="1" as="geometry"/>
                </mxCell>
                <mxCell id="xco-Sbekk9N-eOxt5Vlx-166" style="edgeStyle=orthogonalEdgeStyle;rounded=0;orthogonalLoop=1;jettySize=auto;html=1;endArrow=none;startFill=0;" parent="1" source="xco-Sbekk9N-eOxt5Vlx-165" target="xco-Sbekk9N-eOxt5Vlx-128" edge="1">
                    <mxGeometry relative="1" as="geometry"/>
                </mxCell>
                <mxCell id="xco-Sbekk9N-eOxt5Vlx-165" value="Relationship" style="shape=rhombus;perimeter=rhombusPerimeter;whiteSpace=wrap;html=1;align=center;fillColor=#f8cecc;strokeColor=#b85450;" parent="1" vertex="1">
                    <mxGeometry x="20" y="760" width="120" height="60" as="geometry"/>
                </mxCell>
                <mxCell id="xco-Sbekk9N-eOxt5Vlx-167" style="edgeStyle=orthogonalEdgeStyle;rounded=0;orthogonalLoop=1;jettySize=auto;html=1;entryX=0.388;entryY=0.04;entryDx=0;entryDy=0;entryPerimeter=0;endArrow=none;startFill=0;" parent="1" source="xco-Sbekk9N-eOxt5Vlx-165" target="xco-Sbekk9N-eOxt5Vlx-155" edge="1">
                    <mxGeometry relative="1" as="geometry"/>
                </mxCell>
                <mxCell id="xco-Sbekk9N-eOxt5Vlx-201" style="edgeStyle=orthogonalEdgeStyle;rounded=0;orthogonalLoop=1;jettySize=auto;html=1;entryX=0.5;entryY=1;entryDx=0;entryDy=0;endArrow=none;startFill=0;curved=1;" parent="1" source="xco-Sbekk9N-eOxt5Vlx-168" target="xco-Sbekk9N-eOxt5Vlx-169" edge="1">
                    <mxGeometry relative="1" as="geometry"/>
                </mxCell>
                <mxCell id="xco-Sbekk9N-eOxt5Vlx-168" value="Relationship" style="shape=rhombus;perimeter=rhombusPerimeter;whiteSpace=wrap;html=1;align=center;fillColor=#f8cecc;strokeColor=#b85450;" parent="1" vertex="1">
                    <mxGeometry x="790" y="920" width="120" height="60" as="geometry"/>
                </mxCell>
                <mxCell id="xco-Sbekk9N-eOxt5Vlx-169" value="Empleado" style="whiteSpace=wrap;html=1;align=center;fillColor=#d5e8d4;strokeColor=#82b366;" parent="1" vertex="1">
                    <mxGeometry x="1580" y="530" width="100" height="40" as="geometry"/>
                </mxCell>
                <mxCell id="xco-Sbekk9N-eOxt5Vlx-171" value="Id Empleado" style="ellipse;whiteSpace=wrap;html=1;align=center;fontStyle=4;fillColor=#e1d5e7;strokeColor=#9673a6;" parent="1" vertex="1">
                    <mxGeometry x="1400" y="470" width="100" height="40" as="geometry"/>
                </mxCell>
                <mxCell id="xco-Sbekk9N-eOxt5Vlx-190" style="rounded=0;orthogonalLoop=1;jettySize=auto;html=1;" parent="1" source="xco-Sbekk9N-eOxt5Vlx-172" target="xco-Sbekk9N-eOxt5Vlx-169" edge="1">
                    <mxGeometry relative="1" as="geometry"/>
                </mxCell>
                <mxCell id="xco-Sbekk9N-eOxt5Vlx-172" value="Id cargo" style="ellipse;whiteSpace=wrap;html=1;align=center;fillColor=#fff2cc;strokeColor=#d6b656;" parent="1" vertex="1">
                    <mxGeometry x="1350" y="520" width="100" height="40" as="geometry"/>
                </mxCell>
                <mxCell id="xco-Sbekk9N-eOxt5Vlx-191" style="rounded=0;orthogonalLoop=1;jettySize=auto;html=1;entryX=0;entryY=1;entryDx=0;entryDy=0;" parent="1" source="xco-Sbekk9N-eOxt5Vlx-173" target="xco-Sbekk9N-eOxt5Vlx-169" edge="1">
                    <mxGeometry relative="1" as="geometry"/>
                </mxCell>
                <mxCell id="xco-Sbekk9N-eOxt5Vlx-173" value="Primer nombre del empleado" style="ellipse;whiteSpace=wrap;html=1;align=center;fillColor=#dae8fc;strokeColor=#6c8ebf;" parent="1" vertex="1">
                    <mxGeometry x="1360" y="590" width="100" height="40" as="geometry"/>
                </mxCell>
                <mxCell id="xco-Sbekk9N-eOxt5Vlx-174" value="Segundo nombre del empleado" style="ellipse;whiteSpace=wrap;html=1;align=center;fillColor=#dae8fc;strokeColor=#6c8ebf;" parent="1" vertex="1">
                    <mxGeometry x="1420" y="650" width="100" height="40" as="geometry"/>
                </mxCell>
                <mxCell id="xco-Sbekk9N-eOxt5Vlx-175" value="Primer apellido del empleado" style="ellipse;whiteSpace=wrap;html=1;align=center;fillColor=#dae8fc;strokeColor=#6c8ebf;" parent="1" vertex="1">
                    <mxGeometry x="1510" y="700" width="100" height="40" as="geometry"/>
                </mxCell>
                <mxCell id="xco-Sbekk9N-eOxt5Vlx-176" value="Segundo apellido del empleado" style="ellipse;whiteSpace=wrap;html=1;align=center;fillColor=#dae8fc;strokeColor=#6c8ebf;" parent="1" vertex="1">
                    <mxGeometry x="1640" y="700" width="100" height="40" as="geometry"/>
                </mxCell>
                <mxCell id="xco-Sbekk9N-eOxt5Vlx-195" style="rounded=0;orthogonalLoop=1;jettySize=auto;html=1;entryX=1;entryY=0.75;entryDx=0;entryDy=0;" parent="1" source="xco-Sbekk9N-eOxt5Vlx-177" target="xco-Sbekk9N-eOxt5Vlx-169" edge="1">
                    <mxGeometry relative="1" as="geometry"/>
                </mxCell>
                <mxCell id="xco-Sbekk9N-eOxt5Vlx-177" value="Dirección del empleado" style="ellipse;whiteSpace=wrap;html=1;align=center;fillColor=#dae8fc;strokeColor=#6c8ebf;" parent="1" vertex="1">
                    <mxGeometry x="1720" y="670" width="100" height="40" as="geometry"/>
                </mxCell>
                <mxCell id="xco-Sbekk9N-eOxt5Vlx-199" style="rounded=0;orthogonalLoop=1;jettySize=auto;html=1;entryX=1;entryY=0.5;entryDx=0;entryDy=0;" parent="1" source="xco-Sbekk9N-eOxt5Vlx-178" target="xco-Sbekk9N-eOxt5Vlx-169" edge="1">
                    <mxGeometry relative="1" as="geometry"/>
                </mxCell>
                <mxCell id="xco-Sbekk9N-eOxt5Vlx-178" value="Teléfono del empleado" style="ellipse;whiteSpace=wrap;html=1;align=center;fillColor=#dae8fc;strokeColor=#6c8ebf;" parent="1" vertex="1">
                    <mxGeometry x="1780" y="630" width="100" height="40" as="geometry"/>
                </mxCell>
                <mxCell id="xco-Sbekk9N-eOxt5Vlx-179" value="DataCreate" style="ellipse;whiteSpace=wrap;html=1;align=center;fillColor=#dae8fc;strokeColor=#6c8ebf;" parent="1" vertex="1">
                    <mxGeometry x="1700" y="410" width="100" height="40" as="geometry"/>
                </mxCell>
                <mxCell id="xco-Sbekk9N-eOxt5Vlx-188" style="rounded=0;orthogonalLoop=1;jettySize=auto;html=1;entryX=0.5;entryY=0;entryDx=0;entryDy=0;" parent="1" source="xco-Sbekk9N-eOxt5Vlx-180" target="xco-Sbekk9N-eOxt5Vlx-169" edge="1">
                    <mxGeometry relative="1" as="geometry"/>
                </mxCell>
                <mxCell id="xco-Sbekk9N-eOxt5Vlx-180" value="código del empleado" style="ellipse;whiteSpace=wrap;html=1;align=center;fillColor=#dae8fc;strokeColor=#6c8ebf;" parent="1" vertex="1">
                    <mxGeometry x="1480" y="410" width="100" height="40" as="geometry"/>
                </mxCell>
                <mxCell id="xco-Sbekk9N-eOxt5Vlx-181" value="EstadoEmpleado" style="ellipse;whiteSpace=wrap;html=1;align=center;fillColor=#dae8fc;strokeColor=#6c8ebf;" parent="1" vertex="1">
                    <mxGeometry x="1630" y="380" width="90" height="40" as="geometry"/>
                </mxCell>
                <mxCell id="xco-Sbekk9N-eOxt5Vlx-198" style="rounded=0;orthogonalLoop=1;jettySize=auto;html=1;entryX=1;entryY=0.25;entryDx=0;entryDy=0;" parent="1" source="xco-Sbekk9N-eOxt5Vlx-184" target="xco-Sbekk9N-eOxt5Vlx-169" edge="1">
                    <mxGeometry relative="1" as="geometry"/>
                </mxCell>
                <mxCell id="xco-Sbekk9N-eOxt5Vlx-184" value="Email" style="ellipse;whiteSpace=wrap;html=1;align=center;fillColor=#dae8fc;strokeColor=#6c8ebf;" parent="1" vertex="1">
                    <mxGeometry x="1850" y="490" width="100" height="40" as="geometry"/>
                </mxCell>
                <mxCell id="xco-Sbekk9N-eOxt5Vlx-197" style="rounded=0;orthogonalLoop=1;jettySize=auto;html=1;entryX=1;entryY=0.25;entryDx=0;entryDy=0;" parent="1" source="xco-Sbekk9N-eOxt5Vlx-185" target="xco-Sbekk9N-eOxt5Vlx-169" edge="1">
                    <mxGeometry relative="1" as="geometry"/>
                </mxCell>
                <mxCell id="xco-Sbekk9N-eOxt5Vlx-185" value="Fecha de ingreso" style="ellipse;whiteSpace=wrap;html=1;align=center;fillColor=#dae8fc;strokeColor=#6c8ebf;" parent="1" vertex="1">
                    <mxGeometry x="1780" y="450" width="100" height="40" as="geometry"/>
                </mxCell>
                <mxCell id="xco-Sbekk9N-eOxt5Vlx-187" style="rounded=0;orthogonalLoop=1;jettySize=auto;html=1;entryX=0.75;entryY=0;entryDx=0;entryDy=0;" parent="1" source="xco-Sbekk9N-eOxt5Vlx-181" target="xco-Sbekk9N-eOxt5Vlx-169" edge="1">
                    <mxGeometry relative="1" as="geometry">
                        <mxPoint x="1640" y="550" as="targetPoint"/>
                    </mxGeometry>
                </mxCell>
                <mxCell id="xco-Sbekk9N-eOxt5Vlx-189" style="rounded=0;orthogonalLoop=1;jettySize=auto;html=1;entryX=0.13;entryY=0.112;entryDx=0;entryDy=0;entryPerimeter=0;" parent="1" source="xco-Sbekk9N-eOxt5Vlx-171" target="xco-Sbekk9N-eOxt5Vlx-169" edge="1">
                    <mxGeometry relative="1" as="geometry"/>
                </mxCell>
                <mxCell id="xco-Sbekk9N-eOxt5Vlx-192" style="rounded=0;orthogonalLoop=1;jettySize=auto;html=1;entryX=0.11;entryY=1.088;entryDx=0;entryDy=0;entryPerimeter=0;" parent="1" source="xco-Sbekk9N-eOxt5Vlx-174" target="xco-Sbekk9N-eOxt5Vlx-169" edge="1">
                    <mxGeometry relative="1" as="geometry"/>
                </mxCell>
                <mxCell id="xco-Sbekk9N-eOxt5Vlx-193" style="rounded=0;orthogonalLoop=1;jettySize=auto;html=1;entryX=0.37;entryY=0.963;entryDx=0;entryDy=0;entryPerimeter=0;" parent="1" source="xco-Sbekk9N-eOxt5Vlx-175" target="xco-Sbekk9N-eOxt5Vlx-169" edge="1">
                    <mxGeometry relative="1" as="geometry"/>
                </mxCell>
                <mxCell id="xco-Sbekk9N-eOxt5Vlx-194" style="rounded=0;orthogonalLoop=1;jettySize=auto;html=1;entryX=0.66;entryY=0.938;entryDx=0;entryDy=0;entryPerimeter=0;" parent="1" source="xco-Sbekk9N-eOxt5Vlx-176" target="xco-Sbekk9N-eOxt5Vlx-169" edge="1">
                    <mxGeometry relative="1" as="geometry"/>
                </mxCell>
                <mxCell id="xco-Sbekk9N-eOxt5Vlx-196" style="rounded=0;orthogonalLoop=1;jettySize=auto;html=1;entryX=0.85;entryY=0.138;entryDx=0;entryDy=0;entryPerimeter=0;" parent="1" source="xco-Sbekk9N-eOxt5Vlx-179" target="xco-Sbekk9N-eOxt5Vlx-169" edge="1">
                    <mxGeometry relative="1" as="geometry"/>
                </mxCell>
                <mxCell id="xco-Sbekk9N-eOxt5Vlx-200" style="edgeStyle=orthogonalEdgeStyle;rounded=0;orthogonalLoop=1;jettySize=auto;html=1;exitX=0.5;exitY=1;exitDx=0;exitDy=0;fillColor=#dae8fc;strokeColor=#6c8ebf;" parent="1" source="xco-Sbekk9N-eOxt5Vlx-173" target="xco-Sbekk9N-eOxt5Vlx-173" edge="1">
                    <mxGeometry relative="1" as="geometry"/>
                </mxCell>
                <mxCell id="xco-Sbekk9N-eOxt5Vlx-204" value="N:N" style="text;html=1;align=center;verticalAlign=middle;resizable=0;points=[];autosize=1;strokeColor=none;fillColor=none;" parent="1" vertex="1">
                    <mxGeometry x="440" y="458" width="40" height="30" as="geometry"/>
                </mxCell>
                <mxCell id="xco-Sbekk9N-eOxt5Vlx-205" value="N:N" style="text;html=1;align=center;verticalAlign=middle;resizable=0;points=[];autosize=1;strokeColor=none;fillColor=none;" parent="1" vertex="1">
                    <mxGeometry x="160" y="768" width="40" height="30" as="geometry"/>
                </mxCell>
                <mxCell id="xco-Sbekk9N-eOxt5Vlx-206" value="N:N" style="text;html=1;align=center;verticalAlign=middle;resizable=0;points=[];autosize=1;strokeColor=none;fillColor=none;" parent="1" vertex="1">
                    <mxGeometry x="820" y="868" width="40" height="30" as="geometry"/>
                </mxCell>
                <mxCell id="xco-Sbekk9N-eOxt5Vlx-209" style="edgeStyle=orthogonalEdgeStyle;rounded=0;orthogonalLoop=1;jettySize=auto;html=1;endArrow=none;startFill=0;" parent="1" source="xco-Sbekk9N-eOxt5Vlx-207" edge="1">
                    <mxGeometry relative="1" as="geometry">
                        <mxPoint x="1630" y="530" as="targetPoint"/>
                    </mxGeometry>
                </mxCell>
                <mxCell id="xco-Sbekk9N-eOxt5Vlx-207" value="Relationship" style="shape=rhombus;perimeter=rhombusPerimeter;whiteSpace=wrap;html=1;align=center;fillColor=#f8cecc;strokeColor=#b85450;" parent="1" vertex="1">
                    <mxGeometry x="1570" y="-30" width="120" height="60" as="geometry"/>
                </mxCell>
                <mxCell id="xco-Sbekk9N-eOxt5Vlx-208" style="edgeStyle=orthogonalEdgeStyle;rounded=0;orthogonalLoop=1;jettySize=auto;html=1;entryX=0.6;entryY=0.963;entryDx=0;entryDy=0;entryPerimeter=0;endArrow=none;startFill=0;" parent="1" source="xco-Sbekk9N-eOxt5Vlx-207" target="xco-Sbekk9N-eOxt5Vlx-108" edge="1">
                    <mxGeometry relative="1" as="geometry"/>
                </mxCell>
                <mxCell id="xco-Sbekk9N-eOxt5Vlx-210" value="N:N" style="text;html=1;align=center;verticalAlign=middle;resizable=0;points=[];autosize=1;strokeColor=none;fillColor=none;" parent="1" vertex="1">
                    <mxGeometry x="1690" y="-12" width="40" height="30" as="geometry"/>
                </mxCell>
                <mxCell id="xco-Sbekk9N-eOxt5Vlx-224" style="edgeStyle=orthogonalEdgeStyle;rounded=0;orthogonalLoop=1;jettySize=auto;html=1;entryX=1;entryY=0.5;entryDx=0;entryDy=0;endArrow=none;startFill=0;" parent="1" source="xco-Sbekk9N-eOxt5Vlx-211" target="xco-Sbekk9N-eOxt5Vlx-222" edge="1">
                    <mxGeometry relative="1" as="geometry"/>
                </mxCell>
                <mxCell id="xco-Sbekk9N-eOxt5Vlx-211" value="Cargo" style="whiteSpace=wrap;html=1;align=center;fillColor=#d5e8d4;strokeColor=#82b366;" parent="1" vertex="1">
                    <mxGeometry x="2280" y="530" width="100" height="40" as="geometry"/>
                </mxCell>
                <mxCell id="xco-Sbekk9N-eOxt5Vlx-216" style="rounded=0;orthogonalLoop=1;jettySize=auto;html=1;entryX=0;entryY=0;entryDx=0;entryDy=0;" parent="1" source="xco-Sbekk9N-eOxt5Vlx-212" target="xco-Sbekk9N-eOxt5Vlx-211" edge="1">
                    <mxGeometry relative="1" as="geometry"/>
                </mxCell>
                <mxCell id="xco-Sbekk9N-eOxt5Vlx-212" value="IdCargo" style="ellipse;whiteSpace=wrap;html=1;align=center;fontStyle=4;fillColor=#e1d5e7;strokeColor=#9673a6;" parent="1" vertex="1">
                    <mxGeometry x="2160" y="480" width="100" height="40" as="geometry"/>
                </mxCell>
                <mxCell id="xco-Sbekk9N-eOxt5Vlx-213" value="Nombre Cargo" style="ellipse;whiteSpace=wrap;html=1;align=center;fillColor=#dae8fc;strokeColor=#6c8ebf;" parent="1" vertex="1">
                    <mxGeometry x="2160" y="570" width="100" height="40" as="geometry"/>
                </mxCell>
                <mxCell id="xco-Sbekk9N-eOxt5Vlx-218" style="rounded=0;orthogonalLoop=1;jettySize=auto;html=1;entryX=1;entryY=0;entryDx=0;entryDy=0;" parent="1" source="xco-Sbekk9N-eOxt5Vlx-214" target="xco-Sbekk9N-eOxt5Vlx-211" edge="1">
                    <mxGeometry relative="1" as="geometry"/>
                </mxCell>
                <mxCell id="xco-Sbekk9N-eOxt5Vlx-214" value="Estado del cargo" style="ellipse;whiteSpace=wrap;html=1;align=center;fillColor=#dae8fc;strokeColor=#6c8ebf;" parent="1" vertex="1">
                    <mxGeometry x="2400" y="480" width="100" height="40" as="geometry"/>
                </mxCell>
                <mxCell id="xco-Sbekk9N-eOxt5Vlx-219" style="rounded=0;orthogonalLoop=1;jettySize=auto;html=1;entryX=1;entryY=0.75;entryDx=0;entryDy=0;" parent="1" source="xco-Sbekk9N-eOxt5Vlx-215" target="xco-Sbekk9N-eOxt5Vlx-211" edge="1">
                    <mxGeometry relative="1" as="geometry"/>
                </mxCell>
                <mxCell id="xco-Sbekk9N-eOxt5Vlx-215" value="DataCreate" style="ellipse;whiteSpace=wrap;html=1;align=center;fillColor=#dae8fc;strokeColor=#6c8ebf;" parent="1" vertex="1">
                    <mxGeometry x="2400" y="580" width="100" height="40" as="geometry"/>
                </mxCell>
                <mxCell id="xco-Sbekk9N-eOxt5Vlx-217" style="rounded=0;orthogonalLoop=1;jettySize=auto;html=1;entryX=0.17;entryY=0.962;entryDx=0;entryDy=0;entryPerimeter=0;" parent="1" source="xco-Sbekk9N-eOxt5Vlx-213" target="xco-Sbekk9N-eOxt5Vlx-211" edge="1">
                    <mxGeometry relative="1" as="geometry"/>
                </mxCell>
                <mxCell id="xco-Sbekk9N-eOxt5Vlx-221" style="rounded=0;orthogonalLoop=1;jettySize=auto;html=1;" parent="1" source="xco-Sbekk9N-eOxt5Vlx-220" target="xco-Sbekk9N-eOxt5Vlx-211" edge="1">
                    <mxGeometry relative="1" as="geometry"/>
                </mxCell>
                <mxCell id="xco-Sbekk9N-eOxt5Vlx-220" value="Descripción cargo" style="ellipse;whiteSpace=wrap;html=1;align=center;fillColor=#dae8fc;strokeColor=#6c8ebf;" parent="1" vertex="1">
                    <mxGeometry x="2280" y="420" width="100" height="40" as="geometry"/>
                </mxCell>
                <mxCell id="xco-Sbekk9N-eOxt5Vlx-223" style="edgeStyle=orthogonalEdgeStyle;rounded=0;orthogonalLoop=1;jettySize=auto;html=1;endArrow=none;startFill=0;" parent="1" source="xco-Sbekk9N-eOxt5Vlx-222" edge="1">
                    <mxGeometry relative="1" as="geometry">
                        <mxPoint x="1680" y="550" as="targetPoint"/>
                    </mxGeometry>
                </mxCell>
                <mxCell id="xco-Sbekk9N-eOxt5Vlx-222" value="Relationship" style="shape=rhombus;perimeter=rhombusPerimeter;whiteSpace=wrap;html=1;align=center;fillColor=#f8cecc;strokeColor=#b85450;" parent="1" vertex="1">
                    <mxGeometry x="1950" y="520" width="120" height="60" as="geometry"/>
                </mxCell>
                <mxCell id="xco-Sbekk9N-eOxt5Vlx-226" value="N:1" style="text;html=1;align=center;verticalAlign=middle;resizable=0;points=[];autosize=1;strokeColor=none;fillColor=none;" parent="1" vertex="1">
                    <mxGeometry x="1980" y="488" width="40" height="30" as="geometry"/>
                </mxCell>
                <mxCell id="xco-Sbekk9N-eOxt5Vlx-227" value="HabitadContinente" style="whiteSpace=wrap;html=1;align=center;fillColor=#d5e8d4;strokeColor=#82b366;" parent="1" vertex="1">
                    <mxGeometry x="-700" y="100" width="100" height="40" as="geometry"/>
                </mxCell>
                <mxCell id="xco-Sbekk9N-eOxt5Vlx-232" style="rounded=0;orthogonalLoop=1;jettySize=auto;html=1;entryX=1;entryY=0;entryDx=0;entryDy=0;" parent="1" source="xco-Sbekk9N-eOxt5Vlx-228" target="xco-Sbekk9N-eOxt5Vlx-227" edge="1">
                    <mxGeometry relative="1" as="geometry"/>
                </mxCell>
                <mxCell id="xco-Sbekk9N-eOxt5Vlx-228" value="IdContinente" style="ellipse;whiteSpace=wrap;html=1;align=center;fillColor=#fff2cc;strokeColor=#d6b656;" parent="1" vertex="1">
                    <mxGeometry x="-600" y="50" width="100" height="40" as="geometry"/>
                </mxCell>
                <mxCell id="xco-Sbekk9N-eOxt5Vlx-233" style="rounded=0;orthogonalLoop=1;jettySize=auto;html=1;entryX=1;entryY=1;entryDx=0;entryDy=0;" parent="1" source="xco-Sbekk9N-eOxt5Vlx-229" target="xco-Sbekk9N-eOxt5Vlx-227" edge="1">
                    <mxGeometry relative="1" as="geometry"/>
                </mxCell>
                <mxCell id="xco-Sbekk9N-eOxt5Vlx-229" value="IdHabitad" style="ellipse;whiteSpace=wrap;html=1;align=center;fillColor=#fff2cc;strokeColor=#d6b656;" parent="1" vertex="1">
                    <mxGeometry x="-600" y="160" width="100" height="40" as="geometry"/>
                </mxCell>
                <mxCell id="xco-Sbekk9N-eOxt5Vlx-235" style="rounded=0;orthogonalLoop=1;jettySize=auto;html=1;entryX=0;entryY=0;entryDx=0;entryDy=0;" parent="1" source="xco-Sbekk9N-eOxt5Vlx-230" target="xco-Sbekk9N-eOxt5Vlx-227" edge="1">
                    <mxGeometry relative="1" as="geometry"/>
                </mxCell>
                <mxCell id="xco-Sbekk9N-eOxt5Vlx-230" value="DataCreate" style="ellipse;whiteSpace=wrap;html=1;align=center;fillColor=#dae8fc;strokeColor=#6c8ebf;" parent="1" vertex="1">
                    <mxGeometry x="-800" y="60" width="100" height="40" as="geometry"/>
                </mxCell>
                <mxCell id="xco-Sbekk9N-eOxt5Vlx-234" style="rounded=0;orthogonalLoop=1;jettySize=auto;html=1;entryX=0;entryY=0.75;entryDx=0;entryDy=0;" parent="1" source="xco-Sbekk9N-eOxt5Vlx-231" target="xco-Sbekk9N-eOxt5Vlx-227" edge="1">
                    <mxGeometry relative="1" as="geometry"/>
                </mxCell>
                <mxCell id="xco-Sbekk9N-eOxt5Vlx-231" value="Estado del habitad continente" style="ellipse;whiteSpace=wrap;html=1;align=center;fillColor=#dae8fc;strokeColor=#6c8ebf;" parent="1" vertex="1">
                    <mxGeometry x="-800" y="160" width="100" height="40" as="geometry"/>
                </mxCell>
                <mxCell id="xco-Sbekk9N-eOxt5Vlx-238" style="edgeStyle=orthogonalEdgeStyle;rounded=0;orthogonalLoop=1;jettySize=auto;html=1;endArrow=none;startFill=0;" parent="1" source="xco-Sbekk9N-eOxt5Vlx-236" target="xco-Sbekk9N-eOxt5Vlx-227" edge="1">
                    <mxGeometry relative="1" as="geometry"/>
                </mxCell>
                <mxCell id="xco-Sbekk9N-eOxt5Vlx-236" value="Relationship" style="shape=rhombus;perimeter=rhombusPerimeter;whiteSpace=wrap;html=1;align=center;fillColor=#f8cecc;strokeColor=#b85450;" parent="1" vertex="1">
                    <mxGeometry x="-380" y="90" width="120" height="60" as="geometry"/>
                </mxCell>
                <mxCell id="xco-Sbekk9N-eOxt5Vlx-239" value="N:N" style="text;html=1;align=center;verticalAlign=middle;resizable=0;points=[];autosize=1;strokeColor=none;fillColor=none;" parent="1" vertex="1">
                    <mxGeometry x="-330" y="48" width="40" height="30" as="geometry"/>
                </mxCell>
                <mxCell id="xco-Sbekk9N-eOxt5Vlx-246" style="edgeStyle=orthogonalEdgeStyle;rounded=0;orthogonalLoop=1;jettySize=auto;html=1;entryX=0;entryY=0.5;entryDx=0;entryDy=0;endArrow=none;startFill=0;" parent="1" source="xco-Sbekk9N-eOxt5Vlx-240" target="xco-Sbekk9N-eOxt5Vlx-241" edge="1">
                    <mxGeometry relative="1" as="geometry"/>
                </mxCell>
                <mxCell id="xco-Sbekk9N-eOxt5Vlx-247" style="edgeStyle=orthogonalEdgeStyle;rounded=0;orthogonalLoop=1;jettySize=auto;html=1;entryX=0.5;entryY=0;entryDx=0;entryDy=0;endArrow=none;startFill=0;" parent="1" source="xco-Sbekk9N-eOxt5Vlx-240" target="xco-Sbekk9N-eOxt5Vlx-227" edge="1">
                    <mxGeometry relative="1" as="geometry"/>
                </mxCell>
                <mxCell id="xco-Sbekk9N-eOxt5Vlx-240" value="Relationship" style="shape=rhombus;perimeter=rhombusPerimeter;whiteSpace=wrap;html=1;align=center;fillColor=#f8cecc;strokeColor=#b85450;" parent="1" vertex="1">
                    <mxGeometry x="-710" y="-210" width="120" height="60" as="geometry"/>
                </mxCell>
                <mxCell id="xco-Sbekk9N-eOxt5Vlx-241" value="Continente" style="whiteSpace=wrap;html=1;align=center;fillColor=#d5e8d4;strokeColor=#82b366;" parent="1" vertex="1">
                    <mxGeometry x="-400" y="-200" width="100" height="40" as="geometry"/>
                </mxCell>
                <mxCell id="xco-Sbekk9N-eOxt5Vlx-244" style="rounded=0;orthogonalLoop=1;jettySize=auto;html=1;entryX=0.75;entryY=0;entryDx=0;entryDy=0;" parent="1" source="xco-Sbekk9N-eOxt5Vlx-242" target="xco-Sbekk9N-eOxt5Vlx-241" edge="1">
                    <mxGeometry relative="1" as="geometry"/>
                </mxCell>
                <mxCell id="xco-Sbekk9N-eOxt5Vlx-242" value="IdContinente" style="ellipse;whiteSpace=wrap;html=1;align=center;fontStyle=4;fillColor=#e1d5e7;strokeColor=#9673a6;" parent="1" vertex="1">
                    <mxGeometry x="-300" y="-265" width="100" height="40" as="geometry"/>
                </mxCell>
                <mxCell id="xco-Sbekk9N-eOxt5Vlx-245" style="rounded=0;orthogonalLoop=1;jettySize=auto;html=1;entryX=0.5;entryY=1;entryDx=0;entryDy=0;" parent="1" source="xco-Sbekk9N-eOxt5Vlx-243" target="xco-Sbekk9N-eOxt5Vlx-241" edge="1">
                    <mxGeometry relative="1" as="geometry"/>
                </mxCell>
                <mxCell id="xco-Sbekk9N-eOxt5Vlx-243" value="Nombre del continente" style="ellipse;whiteSpace=wrap;html=1;align=center;fillColor=#dae8fc;strokeColor=#6c8ebf;" parent="1" vertex="1">
                    <mxGeometry x="-300" y="-140" width="100" height="40" as="geometry"/>
                </mxCell>
                <mxCell id="xco-Sbekk9N-eOxt5Vlx-248" value="N:1" style="text;html=1;align=center;verticalAlign=middle;resizable=0;points=[];autosize=1;strokeColor=none;fillColor=none;" parent="1" vertex="1">
                    <mxGeometry x="-670" y="-255" width="40" height="30" as="geometry"/>
                </mxCell>
                <mxCell id="xco-Sbekk9N-eOxt5Vlx-249" value="Users" style="whiteSpace=wrap;html=1;align=center;fillColor=#d5e8d4;strokeColor=#82b366;" parent="1" vertex="1">
                    <mxGeometry x="-700" y="400" width="100" height="40" as="geometry"/>
                </mxCell>
                <mxCell id="xco-Sbekk9N-eOxt5Vlx-251" style="rounded=0;orthogonalLoop=1;jettySize=auto;html=1;entryX=0.75;entryY=0;entryDx=0;entryDy=0;" parent="1" source="xco-Sbekk9N-eOxt5Vlx-250" target="xco-Sbekk9N-eOxt5Vlx-249" edge="1">
                    <mxGeometry relative="1" as="geometry"/>
                </mxCell>
                <mxCell id="xco-Sbekk9N-eOxt5Vlx-250" value="Id usuario" style="ellipse;whiteSpace=wrap;html=1;align=center;fontStyle=4;fillColor=#e1d5e7;strokeColor=#9673a6;" parent="1" vertex="1">
                    <mxGeometry x="-570" y="360" width="100" height="40" as="geometry"/>
                </mxCell>
                <mxCell id="xco-Sbekk9N-eOxt5Vlx-254" style="rounded=0;orthogonalLoop=1;jettySize=auto;html=1;entryX=0.75;entryY=1;entryDx=0;entryDy=0;" parent="1" source="xco-Sbekk9N-eOxt5Vlx-252" target="xco-Sbekk9N-eOxt5Vlx-249" edge="1">
                    <mxGeometry relative="1" as="geometry"/>
                </mxCell>
                <mxCell id="xco-Sbekk9N-eOxt5Vlx-252" value="Nombre de usuario" style="ellipse;whiteSpace=wrap;html=1;align=center;fillColor=#dae8fc;strokeColor=#6c8ebf;" parent="1" vertex="1">
                    <mxGeometry x="-590" y="450" width="100" height="40" as="geometry"/>
                </mxCell>
                <mxCell id="xco-Sbekk9N-eOxt5Vlx-255" style="rounded=0;orthogonalLoop=1;jettySize=auto;html=1;entryX=0.5;entryY=0;entryDx=0;entryDy=0;" parent="1" source="xco-Sbekk9N-eOxt5Vlx-253" target="xco-Sbekk9N-eOxt5Vlx-249" edge="1">
                    <mxGeometry relative="1" as="geometry"/>
                </mxCell>
                <mxCell id="xco-Sbekk9N-eOxt5Vlx-253" value="Gmail" style="ellipse;whiteSpace=wrap;html=1;align=center;fillColor=#dae8fc;strokeColor=#6c8ebf;" parent="1" vertex="1">
                    <mxGeometry x="-710" y="300" width="100" height="40" as="geometry"/>
                </mxCell>
                <mxCell id="xco-Sbekk9N-eOxt5Vlx-258" style="rounded=0;orthogonalLoop=1;jettySize=auto;html=1;entryX=0;entryY=1;entryDx=0;entryDy=0;" parent="1" source="xco-Sbekk9N-eOxt5Vlx-256" target="xco-Sbekk9N-eOxt5Vlx-249" edge="1">
                    <mxGeometry relative="1" as="geometry"/>
                </mxCell>
                <mxCell id="xco-Sbekk9N-eOxt5Vlx-256" value="Idrol" style="ellipse;whiteSpace=wrap;html=1;align=center;fillColor=#fff2cc;strokeColor=#d6b656;" parent="1" vertex="1">
                    <mxGeometry x="-820" y="490" width="100" height="40" as="geometry"/>
                </mxCell>
                <mxCell id="xco-Sbekk9N-eOxt5Vlx-259" style="rounded=0;orthogonalLoop=1;jettySize=auto;html=1;entryX=0;entryY=0.5;entryDx=0;entryDy=0;" parent="1" source="xco-Sbekk9N-eOxt5Vlx-257" target="xco-Sbekk9N-eOxt5Vlx-249" edge="1">
                    <mxGeometry relative="1" as="geometry"/>
                </mxCell>
                <mxCell id="xco-Sbekk9N-eOxt5Vlx-257" value="DataCreate" style="ellipse;whiteSpace=wrap;html=1;align=center;fillColor=#dae8fc;strokeColor=#6c8ebf;" parent="1" vertex="1">
                    <mxGeometry x="-870" y="420" width="100" height="40" as="geometry"/>
                </mxCell>
                <mxCell id="xco-Sbekk9N-eOxt5Vlx-261" style="rounded=0;orthogonalLoop=1;jettySize=auto;html=1;entryX=0;entryY=0.25;entryDx=0;entryDy=0;" parent="1" source="xco-Sbekk9N-eOxt5Vlx-260" target="xco-Sbekk9N-eOxt5Vlx-249" edge="1">
                    <mxGeometry relative="1" as="geometry"/>
                </mxCell>
                <mxCell id="xco-Sbekk9N-eOxt5Vlx-260" value="Estado Usuario" style="ellipse;whiteSpace=wrap;html=1;align=center;fillColor=#dae8fc;strokeColor=#6c8ebf;" parent="1" vertex="1">
                    <mxGeometry x="-830" y="330" width="100" height="40" as="geometry"/>
                </mxCell>
                <mxCell id="xco-Sbekk9N-eOxt5Vlx-265" value="Rol" style="whiteSpace=wrap;html=1;align=center;fillColor=#d5e8d4;strokeColor=#82b366;" parent="1" vertex="1">
                    <mxGeometry x="-710" y="838" width="100" height="40" as="geometry"/>
                </mxCell>
                <mxCell id="xco-Sbekk9N-eOxt5Vlx-267" style="rounded=0;orthogonalLoop=1;jettySize=auto;html=1;entryX=0;entryY=0.75;entryDx=0;entryDy=0;" parent="1" source="xco-Sbekk9N-eOxt5Vlx-266" target="xco-Sbekk9N-eOxt5Vlx-265" edge="1">
                    <mxGeometry relative="1" as="geometry"/>
                </mxCell>
                <mxCell id="xco-Sbekk9N-eOxt5Vlx-266" value="Idrol" style="ellipse;whiteSpace=wrap;html=1;align=center;fontStyle=4;fillColor=#e1d5e7;strokeColor=#9673a6;" parent="1" vertex="1">
                    <mxGeometry x="-840" y="800" width="100" height="40" as="geometry"/>
                </mxCell>
                <mxCell id="xco-Sbekk9N-eOxt5Vlx-274" style="rounded=0;orthogonalLoop=1;jettySize=auto;html=1;entryX=0.5;entryY=0;entryDx=0;entryDy=0;" parent="1" source="xco-Sbekk9N-eOxt5Vlx-268" target="xco-Sbekk9N-eOxt5Vlx-265" edge="1">
                    <mxGeometry relative="1" as="geometry"/>
                </mxCell>
                <mxCell id="xco-Sbekk9N-eOxt5Vlx-268" value="Código rol" style="ellipse;whiteSpace=wrap;html=1;align=center;fillColor=#dae8fc;strokeColor=#6c8ebf;" parent="1" vertex="1">
                    <mxGeometry x="-770" y="730" width="100" height="40" as="geometry"/>
                </mxCell>
                <mxCell id="xco-Sbekk9N-eOxt5Vlx-275" style="rounded=0;orthogonalLoop=1;jettySize=auto;html=1;entryX=1;entryY=0;entryDx=0;entryDy=0;" parent="1" source="xco-Sbekk9N-eOxt5Vlx-269" target="xco-Sbekk9N-eOxt5Vlx-265" edge="1">
                    <mxGeometry relative="1" as="geometry"/>
                </mxCell>
                <mxCell id="xco-Sbekk9N-eOxt5Vlx-269" value="Descripcion de rol" style="ellipse;whiteSpace=wrap;html=1;align=center;fillColor=#dae8fc;strokeColor=#6c8ebf;" parent="1" vertex="1">
                    <mxGeometry x="-560" y="790" width="100" height="40" as="geometry"/>
                </mxCell>
                <mxCell id="xco-Sbekk9N-eOxt5Vlx-273" style="rounded=0;orthogonalLoop=1;jettySize=auto;html=1;" parent="1" source="xco-Sbekk9N-eOxt5Vlx-270" edge="1">
                    <mxGeometry relative="1" as="geometry">
                        <mxPoint x="-690" y="880" as="targetPoint"/>
                    </mxGeometry>
                </mxCell>
                <mxCell id="xco-Sbekk9N-eOxt5Vlx-270" value="EstadoRol" style="ellipse;whiteSpace=wrap;html=1;align=center;fillColor=#dae8fc;strokeColor=#6c8ebf;" parent="1" vertex="1">
                    <mxGeometry x="-830" y="920" width="100" height="40" as="geometry"/>
                </mxCell>
                <mxCell id="xco-Sbekk9N-eOxt5Vlx-276" style="rounded=0;orthogonalLoop=1;jettySize=auto;html=1;entryX=1;entryY=0.75;entryDx=0;entryDy=0;" parent="1" source="xco-Sbekk9N-eOxt5Vlx-271" target="xco-Sbekk9N-eOxt5Vlx-265" edge="1">
                    <mxGeometry relative="1" as="geometry"/>
                </mxCell>
                <mxCell id="xco-Sbekk9N-eOxt5Vlx-271" value="Nombre del rol" style="ellipse;whiteSpace=wrap;html=1;align=center;fillColor=#dae8fc;strokeColor=#6c8ebf;" parent="1" vertex="1">
                    <mxGeometry x="-580" y="920" width="100" height="40" as="geometry"/>
                </mxCell>
                <mxCell id="xco-Sbekk9N-eOxt5Vlx-277" style="rounded=0;orthogonalLoop=1;jettySize=auto;html=1;" parent="1" source="xco-Sbekk9N-eOxt5Vlx-272" target="xco-Sbekk9N-eOxt5Vlx-265" edge="1">
                    <mxGeometry relative="1" as="geometry"/>
                </mxCell>
                <mxCell id="xco-Sbekk9N-eOxt5Vlx-272" value="DataCreate" style="ellipse;whiteSpace=wrap;html=1;align=center;fillColor=#dae8fc;strokeColor=#6c8ebf;" parent="1" vertex="1">
                    <mxGeometry x="-710" y="960" width="100" height="40" as="geometry"/>
                </mxCell>
                <mxCell id="xco-Sbekk9N-eOxt5Vlx-280" style="edgeStyle=orthogonalEdgeStyle;rounded=0;orthogonalLoop=1;jettySize=auto;html=1;entryX=0.5;entryY=0;entryDx=0;entryDy=0;endArrow=none;startFill=0;" parent="1" source="xco-Sbekk9N-eOxt5Vlx-278" target="xco-Sbekk9N-eOxt5Vlx-265" edge="1">
                    <mxGeometry relative="1" as="geometry"/>
                </mxCell>
                <mxCell id="xco-Sbekk9N-eOxt5Vlx-278" value="Relationship" style="shape=rhombus;perimeter=rhombusPerimeter;whiteSpace=wrap;html=1;align=center;fillColor=#f8cecc;strokeColor=#b85450;" parent="1" vertex="1">
                    <mxGeometry x="-720" y="580" width="120" height="60" as="geometry"/>
                </mxCell>
                <mxCell id="xco-Sbekk9N-eOxt5Vlx-279" style="edgeStyle=orthogonalEdgeStyle;rounded=0;orthogonalLoop=1;jettySize=auto;html=1;entryX=0.5;entryY=1;entryDx=0;entryDy=0;endArrow=none;startFill=0;" parent="1" source="xco-Sbekk9N-eOxt5Vlx-278" target="xco-Sbekk9N-eOxt5Vlx-249" edge="1">
                    <mxGeometry relative="1" as="geometry"/>
                </mxCell>
                <mxCell id="xco-Sbekk9N-eOxt5Vlx-281" value="1:1" style="text;html=1;align=center;verticalAlign=middle;resizable=0;points=[];autosize=1;strokeColor=none;fillColor=none;" parent="1" vertex="1">
                    <mxGeometry x="-590" y="598" width="40" height="30" as="geometry"/>
                </mxCell>
            </root>
        </mxGraphModel>
    </diagram>
</mxfile>